<svg xmlns="http://www.w3.org/2000/svg" width="990" height="380" viewBox="0 0 990 380" role="img">
<style>
text{font-family:Arial,'Noto Sans KR',sans-serif;fill:#1d2230}
.box{fill:#ffffff;stroke:#4635B1;stroke-width:2}
.soft{fill:#f2f0ff;stroke:#8e83d9;stroke-width:1.5}
.gray{fill:#f8f8f6;stroke:#aeb3bc;stroke-width:1.5}
.dark{fill:#20242c;stroke:#20242c;stroke-width:1.5}
.darktext{fill:#ffffff}
.line{stroke:#4a4f5a;stroke-width:2;fill:none;marker-end:url(#arrow)}
.bus{stroke:#4635B1;stroke-width:5;fill:none;opacity:.9}
.dash{stroke:#858B96;stroke-width:1.5;fill:none;stroke-dasharray:6 5}
.small{font-size:13px}
.label{font-size:15px;font-weight:700}
.title{font-size:18px;font-weight:700}
</style>
<defs><marker id="arrow" viewBox="0 0 10 10" refX="9" refY="5" markerWidth="7" markerHeight="7" orient="auto-start-reverse"><path d="M 0 0 L 10 5 L 0 10 z" fill="#4a4f5a"/></marker></defs>
<text class="title" x="25" y="30" text-anchor="start">Vivado 설계 흐름 — UG901/UG904 기반 교육용 재작성</text>
<rect class="box" x="25" y="110" width="88" height="60" rx="8"/>
<text class="label " x="69.0" y="140.0" text-anchor="middle" dominant-baseline="middle">RTL</text>
<line class="line" x1="113" y1="140" x2="127" y2="140"/>
<rect class="box" x="130" y="110" width="88" height="60" rx="8"/>
<text class="label " x="174.0" y="140.0" text-anchor="middle" dominant-baseline="middle">Elaboration</text>
<line class="line" x1="218" y1="140" x2="232" y2="140"/>
<rect class="soft" x="235" y="110" width="88" height="60" rx="8"/>
<text class="label " x="279.0" y="140.0" text-anchor="middle" dominant-baseline="middle">Synthesis</text>
<line class="line" x1="323" y1="140" x2="337" y2="140"/>
<rect class="box" x="340" y="110" width="88" height="60" rx="8"/>
<text class="label " x="384.0" y="140.0" text-anchor="middle" dominant-baseline="middle">Netlist</text>
<line class="line" x1="428" y1="140" x2="442" y2="140"/>
<rect class="box" x="445" y="110" width="88" height="60" rx="8"/>
<text class="label " x="489.0" y="140.0" text-anchor="middle" dominant-baseline="middle">Optimization</text>
<line class="line" x1="533" y1="140" x2="547" y2="140"/>
<rect class="soft" x="550" y="110" width="88" height="60" rx="8"/>
<text class="label " x="594.0" y="140.0" text-anchor="middle" dominant-baseline="middle">Placement</text>
<line class="line" x1="638" y1="140" x2="652" y2="140"/>
<rect class="soft" x="655" y="110" width="88" height="60" rx="8"/>
<text class="label " x="699.0" y="140.0" text-anchor="middle" dominant-baseline="middle">Routing</text>
<line class="line" x1="743" y1="140" x2="757" y2="140"/>
<rect class="box" x="760" y="110" width="88" height="60" rx="8"/>
<text class="label " x="804.0" y="140.0" text-anchor="middle" dominant-baseline="middle">Timing</text>
<line class="line" x1="848" y1="140" x2="862" y2="140"/>
<rect class="box" x="865" y="110" width="88" height="60" rx="8"/>
<text class="label " x="909.0" y="140.0" text-anchor="middle" dominant-baseline="middle">Bitstream</text>
<text class="label" x="25" y="225" text-anchor="start">기능 검증</text>
<rect class="gray" x="150" y="195" width="180" height="60" rx="8"/>
<text class="label " x="240.0" y="225.0" text-anchor="middle" dominant-baseline="middle">RTL Simulation</text>
<text class="label" x="25" y="310" text-anchor="start">물리 검증</text>
<rect class="gray" x="150" y="280" width="180" height="60" rx="8"/>
<text class="label " x="240.0" y="310.0" text-anchor="middle" dominant-baseline="middle">STA / DRC</text>
<line class="line" x1="330" y1="225" x2="510" y2="170"/>
<line class="line" x1="330" y1="310" x2="825" y2="170"/></svg>