<svg xmlns="http://www.w3.org/2000/svg" width="970" height="280" viewBox="0 0 970 280" role="img">
<style>
text{font-family:Arial,'Noto Sans KR',sans-serif;fill:#1d2230}
.box{fill:#ffffff;stroke:#4635B1;stroke-width:2}
.soft{fill:#f2f0ff;stroke:#8e83d9;stroke-width:1.5}
.gray{fill:#f8f8f6;stroke:#aeb3bc;stroke-width:1.5}
.dark{fill:#20242c;stroke:#20242c;stroke-width:1.5}
.darktext{fill:#ffffff}
.line{stroke:#4a4f5a;stroke-width:2;fill:none;marker-end:url(#arrow)}
.small{font-size:13px} .label{font-size:15px;font-weight:700} .title{font-size:18px;font-weight:700}
</style>
<defs><marker id="arrow" viewBox="0 0 10 10" refX="9" refY="5" markerWidth="7" markerHeight="7" orient="auto-start-reverse"><path d="M 0 0 L 10 5 L 0 10 z" fill="#4a4f5a"/></marker></defs>
<text class="title" x="30" y="30" text-anchor="start">MicroBlaze 개발 흐름 — Hardware와 Software 연결</text>
<rect class="box" x="30" y="105" width="155" height="85" rx="8"/>
<text class="label " x="107.5" y="147.5" text-anchor="middle" dominant-baseline="middle">Vivado BD</text>
<text class="small " x="107.5" y="178" text-anchor="middle">HW 구조</text>
<line class="line" x1="185" y1="147" x2="210" y2="147"/>
<rect class="soft" x="215" y="105" width="155" height="85" rx="8"/>
<text class="label " x="292.5" y="147.5" text-anchor="middle" dominant-baseline="middle">Bitstream / XSA</text>
<text class="small " x="292.5" y="178" text-anchor="middle">HW Export</text>
<line class="line" x1="370" y1="147" x2="395" y2="147"/>
<rect class="box" x="400" y="105" width="155" height="85" rx="8"/>
<text class="label " x="477.5" y="147.5" text-anchor="middle" dominant-baseline="middle">Software</text>
<text class="small " x="477.5" y="178" text-anchor="middle">C/C++</text>
<line class="line" x1="555" y1="147" x2="580" y2="147"/>
<rect class="soft" x="585" y="105" width="155" height="85" rx="8"/>
<text class="label " x="662.5" y="147.5" text-anchor="middle" dominant-baseline="middle">ELF</text>
<text class="small " x="662.5" y="178" text-anchor="middle">Program</text>
<line class="line" x1="740" y1="147" x2="765" y2="147"/>
<rect class="box" x="770" y="105" width="155" height="85" rx="8"/>
<text class="label " x="847.5" y="147.5" text-anchor="middle" dominant-baseline="middle">Board</text>
<text class="small " x="847.5" y="178" text-anchor="middle">Run/Debug</text></svg>